<svg xmlns="http://www.w3.org/2000/svg" width="32" height="29" viewBox="0 0 32 29" fill="none">
  <path d="M16.0007 2.49963C14.2526 0.892203 11.9644 7.46897e-05 9.58959 0C8.33262 0.0013087 7.08832 0.251181 5.92829 0.735238C4.76826 1.21929 3.71541 1.92798 2.83033 2.8205C-0.94478 6.61166 -0.943176 12.5415 2.83354 16.3166L14.5969 28.0799C14.8696 28.5596 15.3959 28.8692 16.0007 28.8692C16.2491 28.8668 16.4934 28.8062 16.7141 28.6923C16.9347 28.5783 17.1256 28.4142 17.2714 28.2131L29.1679 16.3166C32.9446 12.5398 32.9446 6.61166 29.1647 2.81409C28.28 1.9232 27.228 1.21596 26.0691 0.733015C24.9102 0.250074 23.6673 0.000961998 22.4118 0C20.0371 0.000388195 17.749 0.892474 16.0007 2.49963ZM26.8961 5.08268C29.4037 7.60317 29.4053 11.5403 26.8993 14.048L16.0007 24.9465L5.10214 14.048C2.59609 11.5403 2.5977 7.60317 5.09893 5.0891C6.31826 3.87619 7.91301 3.20876 9.58959 3.20876C11.2662 3.20876 12.8545 3.87619 14.0642 5.08589L14.8664 5.88808C15.0153 6.0372 15.1921 6.15551 15.3867 6.23622C15.5814 6.31694 15.79 6.35849 16.0007 6.35849C16.2114 6.35849 16.4201 6.31694 16.6147 6.23622C16.8093 6.15551 16.9861 6.0372 17.135 5.88808L17.9372 5.08589C20.363 2.66488 24.4734 2.6713 26.8961 5.08268Z" fill="#2DB150"/>
</svg>