<svg xmlns="http://www.w3.org/2000/svg" width="24" height="25" viewBox="0 0 24 25" fill="none">
  <path d="M18.5786 13.1982C18.4614 13.0809 18.3222 12.9878 18.169 12.9242C18.0158 12.8607 17.8516 12.828 17.6858 12.828C17.5199 12.828 17.3557 12.8607 17.2025 12.9242C17.0493 12.9878 16.9101 13.0809 16.793 13.1982L14.7801 15.2111C13.8469 14.9333 12.1055 14.3019 11.0018 13.1982C9.89808 12.0946 9.26668 10.3532 8.98887 9.41995L11.0018 7.40705C11.1191 7.28988 11.2123 7.15072 11.2758 6.99752C11.3393 6.84432 11.372 6.6801 11.372 6.51426C11.372 6.34841 11.3393 6.18419 11.2758 6.03099C11.2123 5.87779 11.1191 5.73863 11.0018 5.62146L5.95058 0.570266C5.8334 0.452894 5.69424 0.359778 5.54104 0.296246C5.38785 0.232714 5.22363 0.200012 5.05778 0.200012C4.89193 0.200012 4.72771 0.232714 4.57451 0.296246C4.42132 0.359778 4.28215 0.452894 4.16498 0.570266L0.740273 3.99497C0.26041 4.47484 -0.00982893 5.13402 0.000273452 5.80709C0.0293178 7.60531 0.505393 13.8511 5.42778 18.7735C10.3502 23.6959 16.596 24.1707 18.3955 24.201H18.4308C19.0976 24.201 19.7277 23.9383 20.205 23.461L23.6297 20.0363C23.7471 19.9191 23.8402 19.78 23.9038 19.6268C23.9673 19.4736 24 19.3093 24 19.1435C24 18.9776 23.9673 18.8134 23.9038 18.6602C23.8402 18.507 23.7471 18.3679 23.6297 18.2507L18.5786 13.1982ZM18.4182 21.6741C16.8422 21.6476 11.4501 21.2246 7.21337 16.9866C2.9628 12.7361 2.55113 7.32497 2.52587 5.78057L5.05778 3.24866L8.32337 6.51426L6.69058 8.14705C6.54215 8.29537 6.43302 8.47833 6.37305 8.67941C6.31308 8.88048 6.30416 9.09334 6.3471 9.29872C6.3774 9.44395 7.11866 12.8876 9.21491 14.9838C11.3112 17.0801 14.7548 17.8213 14.9 17.8517C15.1053 17.8958 15.3184 17.8876 15.5196 17.8278C15.7209 17.768 15.9039 17.6585 16.0517 17.5094L17.6858 15.8766L20.9514 19.1422L18.4182 21.6741Z" fill="black"/>
</svg>