<svg xmlns="http://www.w3.org/2000/svg" width="20" height="25" viewBox="0 0 20 25" fill="none">
  <path d="M9.99997 14.9998C12.7574 14.9998 14.9999 12.7574 14.9999 9.99989C14.9999 7.24242 12.7574 4.99995 9.99997 4.99995C7.2425 4.99995 5.00002 7.24242 5.00002 9.99989C5.00002 12.7574 7.2425 14.9998 9.99997 14.9998ZM9.99997 7.49992C11.3787 7.49992 12.4999 8.62116 12.4999 9.99989C12.4999 11.3786 11.3787 12.4999 9.99997 12.4999C8.62123 12.4999 7.49999 11.3786 7.49999 9.99989C7.49999 8.62116 8.62123 7.49992 9.99997 7.49992Z" fill="#808080"/>
  <path d="M9.27501 24.7672C9.48656 24.9183 9.74004 24.9995 10 24.9995C10.26 24.9995 10.5134 24.9183 10.725 24.7672C11.105 24.4985 20.0361 18.0498 19.9999 9.99989C19.9999 4.4862 15.5137 0 10 0C4.48631 0 0.000110046 4.4862 0.000110046 9.99364C-0.0361396 18.0498 8.89501 24.4985 9.27501 24.7672ZM10 2.49997C14.1362 2.49997 17.4999 5.86369 17.4999 10.0061C17.5262 15.5536 12.015 20.5348 10 22.1685C7.98627 20.5335 2.47383 15.5511 2.50008 9.99989C2.50008 5.86369 5.8638 2.49997 10 2.49997Z" fill="#808080"/>
</svg>